/* XPM */
static char * Untitled_xpm[] = {
"64 64 30 1",
" 	c #DA8E1D",
".	c #2614C1",
"+	c #DA8F1E",
"@	c #DA8F1F",
"#	c #DA8F21",
"$	c #DA8F20",
"%	c #DB8F25",
"&	c #DB8F24",
"*	c #DA8F22",
"=	c #DB912B",
"-	c #DB902B",
";	c #DB902A",
">	c #DB9028",
",	c #DB9026",
"'	c #DA8F23",
")	c #DB912D",
"!	c #DB912C",
"~	c #DB9027",
"{	c #DB9025",
"]	c #DB9029",
"^	c #DA8F1D",
"/	c #DA8F24",
"(	c #DB912F",
"_	c #DB9231",
":	c #DB9233",
"<	c #DB9235",
"[	c #DB9234",
"}	c #DB9232",
"|	c #DB9130",
"1	c #DB912E",
"                                 .                             +",
"                                 .                              ",
"                                 .                              ",
"                                 .                              ",
"                                 .                              ",
"                                 .                              ",
"                                 .                              ",
"                                 .                              ",
"           .............         .                              ",
"      .....   .         ............                            ",
"   ...        .                    .....                        ",
"...           .                         ..                      ",
".              .                          ........              ",
"               .                            .    ...            ",
"               .                            .      ..     ......",
"               .                            .        .....      ",
"               .                            .                   ",
"               .                            .                   ",
"               .                            .                   ",
"               .                            .                   ",
"               .                            .                   ",
"               .                            .                   ",
"               .                            .                   ",
"++             ..                           .                   ",
"@@@++           .                           .                   ",
"###$@++         .                            .                  ",
"%&&*#$@+        .                            .                  ",
"................................             .                  ",
"=-;>,'#@+                    .  .....        ..                 ",
"))!;~&*$++                   .       ....     .                 ",
"))!;>{*$@+                   .           .....                  ",
"=!-],&*$@+                   .                ....      ....... ",
"]]>,&*#@++                   .                    ...... .    ..",
",,&'*#@++                    .                           .      ",
"'*##$@++                     .                           .      ",
"$$@@++^                      .                           ..     ",
"++++                          .                           .     ",
"                              .                           .     ",
"                              .                           .     ",
"                       ++^    .                            .   +",
"                      +++++   ..                           .   +",
"......               ++@@@++   .                           .   @",
"      .........................................            .   @",
"                 .  ++@$$$$@+                 .....        .   +",
"                 .  +@@$##$@++                .    ....    .   +",
"                 .  +@@$##$$@+                .        .........",
"                 .  ++@$$$$$@+^               .                 ",
"                 .. ++@@$$$@@+^               .                 ",
"                  .  ++@@@@@++                .                 ",
"                  .   +++++++                 ..                ",
"                  .     +++^                   .                ",
"                  .                            .                ",
"                  .                            .                ",
"                  .                            .                ",
"...................................            .                ",
"                        .          .........   .                ",
"                        .                   ............        ",
"                        .                             . ........",
"         ++++++++       ..                            .         ",
"      ++++@@@@@@@@++++   .                             .        ",
"     ++@@$########$$@@+++.                             .        ",
"    ++@$#*'&%{{{{&/'*#$@@.^                            .        ",
"    ++@$*&,>;=!!=;]>~{&*#.@+                           .        ",
"    ++@#'~;!(_:<[:}|1=]~..#@++                         ..       "};
